<?xml version="1.0" encoding="UTF-8" standalone="no"?>
<!-- Created with Inkscape (http://www.inkscape.org/) -->

<svg
   width="800"
   height="600"
   viewBox="0 0 211.66666 158.75"
   version="1.1"
   id="svg5"
   inkscape:version="1.1.1 (3bf5ae0d25, 2021-09-20)"
   sodipodi:docname="voeux.svg"
   xmlns:inkscape="http://www.inkscape.org/namespaces/inkscape"
   xmlns:sodipodi="http://sodipodi.sourceforge.net/DTD/sodipodi-0.dtd"
   xmlns="http://www.w3.org/2000/svg"
   xmlns:svg="http://www.w3.org/2000/svg">
  <sodipodi:namedview
     id="namedview7"
     pagecolor="#ffffff"
     bordercolor="#666666"
     borderopacity="1.0"
     inkscape:pageshadow="2"
     inkscape:pageopacity="0.0"
     inkscape:pagecheckerboard="0"
     inkscape:document-units="mm"
     showgrid="false"
     units="px"
     showguides="false"
     inkscape:zoom="0.69664703"
     inkscape:cx="177.99545"
     inkscape:cy="277.0413"
     inkscape:window-width="1920"
     inkscape:window-height="986"
     inkscape:window-x="-11"
     inkscape:window-y="-11"
     inkscape:window-maximized="1"
     inkscape:current-layer="layer1" />
  <defs
     id="defs2">
    <rect
       x="327.28195"
       y="472.26212"
       width="266.81688"
       height="68.773386"
       id="rect42591" />
    <rect
       x="159.33464"
       y="364.60358"
       width="467.95578"
       height="55.98244"
       id="rect36855" />
    <rect
       x="117.70667"
       y="473.69757"
       width="311.49203"
       height="60.288781"
       id="rect30979" />
    <rect
       x="221.05886"
       y="370.34537"
       width="440.68228"
       height="53.111545"
       id="rect25995" />
    <rect
       x="308.62114"
       y="386.13529"
       width="328.7174"
       height="58.853334"
       id="rect13280" />
    <rect
       x="238.28423"
       y="262.68683"
       width="503.74661"
       height="71.062183"
       id="rect9842" />
    <rect
       x="305.75025"
       y="157.89919"
       width="434.94049"
       height="60.288781"
       id="rect6470" />
    <rect
       x="378.95805"
       y="48.805204"
       width="360.29724"
       height="64.595123"
       id="rect3714" />
  </defs>
  <g
     inkscape:label="Layer 1"
     inkscape:groupmode="layer"
     id="layer1">
    <path
       sodipodi:type="star"
       style="fill:#ff2a2a"
       id="path846"
       inkscape:flatsided="false"
       sodipodi:sides="5"
       sodipodi:cx="21.531708"
       sodipodi:cy="21.531708"
       sodipodi:r1="15.259013"
       sodipodi:r2="7.6295061"
       sodipodi:arg1="0.71883"
       sodipodi:arg2="1.3471485"
       inkscape:rounded="0"
       inkscape:randomized="0"
       d="m 33.015285,31.579838 -9.791444,-2.608638 -7.699853,6.587082 -0.54476,-10.11833 -8.6440727,-5.287475 9.4547637,-3.644834 2.357522,-9.8549212 6.388126,7.8656992 10.101101,-0.803202 -5.506684,8.506104 z"
       transform="scale(0.26458333)"
       inkscape:transform-center-x="0.27670022"
       inkscape:transform-center-y="-0.112767" />
    <path
       sodipodi:type="star"
       style="fill:#de8787"
       id="path848"
       inkscape:flatsided="false"
       sodipodi:sides="5"
       sodipodi:cx="773.70599"
       sodipodi:cy="413.40878"
       sodipodi:r1="10.93204"
       sodipodi:r2="5.4660201"
       sodipodi:arg1="0.40489179"
       sodipodi:arg2="1.0332103"
       inkscape:rounded="0"
       inkscape:randomized="0"
       d="m 783.75412,417.71512 -7.24917,0.38869 -3.78949,6.19205 -2.60977,-6.77427 -7.06001,-1.69057 5.63625,-4.57541 -0.57384,-7.23687 6.09317,3.94651 6.70535,-2.78207 -1.87046,7.01448 z"
       transform="scale(0.26458333)"
       inkscape:transform-center-x="0.080989145"
       inkscape:transform-center-y="0.19804271" />
    <path
       sodipodi:type="star"
       style="fill:#ffaaaa"
       id="path872"
       inkscape:flatsided="false"
       sodipodi:sides="5"
       sodipodi:cx="30.14439"
       sodipodi:cy="67.466019"
       sodipodi:r1="27.424179"
       sodipodi:r2="13.71209"
       sodipodi:arg1="0.74837805"
       sodipodi:arg2="1.3766966"
       inkscape:rounded="0"
       inkscape:randomized="0"
       d="M 50.24065,86.126832 32.789222,80.920619 18.606988,92.345206 18.165603,74.139104 2.9176237,64.181389 20.09626,58.135612 24.854725,40.556819 35.913091,55.026425 54.101964,54.119848 43.757773,69.108334 Z"
       transform="scale(0.26458333)"
       inkscape:transform-center-x="0.43248708"
       inkscape:transform-center-y="-0.26855398" />
    <path
       sodipodi:type="star"
       style="fill:#ffaaaa"
       id="path896"
       inkscape:flatsided="false"
       sodipodi:sides="5"
       sodipodi:cx="726.33624"
       sodipodi:cy="427.76328"
       sodipodi:r1="12.264466"
       sodipodi:r2="6.1322331"
       sodipodi:arg1="1.2120257"
       sodipodi:arg2="1.8403442"
       inkscape:rounded="0"
       inkscape:randomized="0"
       d="m 730.64258,439.24685 -5.93932,-5.57277 -7.95782,1.73339 3.46467,-7.37072 -4.10765,-7.03268 8.08061,1.01742 5.41915,-6.07983 1.52942,7.99952 7.45687,3.27514 -7.13538,3.92656 z"
       transform="scale(0.26458333)"
       inkscape:transform-center-x="-0.26702604"
       inkscape:transform-center-y="-0.044720759" />
    <path
       sodipodi:type="star"
       style="fill:#ffaaaa"
       id="path898"
       inkscape:flatsided="false"
       sodipodi:sides="5"
       sodipodi:cx="93.30407"
       sodipodi:cy="21.531708"
       sodipodi:r1="17.285072"
       sodipodi:r2="8.6425362"
       sodipodi:arg1="0.84415399"
       sodipodi:arg2="1.4724725"
       inkscape:rounded="0"
       inkscape:randomized="0"
       d="m 104.78765,34.450732 -10.635182,-4.318231 -9.5865,6.312935 0.82043,-11.449062 -8.966349,-7.166499 11.142232,-2.757679 4.044991,-10.7420755 6.065848,9.7447225 11.46629,0.527532 -7.39333,8.780249 z"
       transform="scale(0.26458333)"
       inkscape:transform-center-x="0.13873171"
       inkscape:transform-center-y="-0.3026647" />
    <path
       sodipodi:type="star"
       style="fill:#ff5555"
       id="path922"
       inkscape:flatsided="false"
       sodipodi:sides="5"
       sodipodi:cx="81.820488"
       sodipodi:cy="80.38504"
       sodipodi:r1="16.048786"
       sodipodi:r2="8.024394"
       sodipodi:arg1="0.46364761"
       sodipodi:arg2="1.0919661"
       inkscape:rounded="0"
       inkscape:randomized="0"
       d="M 96.174959,87.562276 85.517658,87.506967 79.430307,96.254841 76.189622,86.102054 65.988804,83.015881 74.643252,76.796422 74.42615,66.141189 83.015578,72.450139 93.08222,68.951015 89.736331,79.069619 Z"
       transform="scale(0.26458333)"
       inkscape:transform-center-x="0.19542327"
       inkscape:transform-center-y="0.21509925" />
    <path
       sodipodi:type="star"
       style="fill:#ff5555"
       id="path924"
       inkscape:flatsided="false"
       sodipodi:sides="5"
       sodipodi:cx="34.450733"
       sodipodi:cy="139.23837"
       sodipodi:r1="17.521866"
       sodipodi:r2="8.7609329"
       sodipodi:arg1="0.96007036"
       sodipodi:arg2="1.5883889"
       inkscape:rounded="0"
       inkscape:randomized="0"
       d="m 44.498863,153.59284 -10.202249,-5.59489 -10.392752,5.23254 2.168393,-11.43184 -8.187977,-8.26715 11.54239,-1.47036 5.332304,-10.34192 4.965197,10.5231 11.483521,1.87549 -8.473729,7.974 z"
       transform="scale(0.26458333)"
       inkscape:transform-center-x="-0.02520171"
       inkscape:transform-center-y="-0.41866159" />
    <path
       sodipodi:type="star"
       style="fill:#ff2a2a"
       id="path926"
       inkscape:flatsided="false"
       sodipodi:sides="5"
       sodipodi:cx="691.88556"
       sodipodi:cy="462.21399"
       sodipodi:r1="13.541981"
       sodipodi:r2="6.7709908"
       sodipodi:arg1="1.012197"
       sodipodi:arg2="1.6405155"
       inkscape:rounded="0"
       inkscape:randomized="0"
       d="m 699.06279,473.69757 -7.64892,-4.72904 -8.23195,3.62004 2.13393,-8.73591 -5.98667,-6.71041 8.96776,-0.67005 4.53199,-7.76729 3.40845,8.32179 8.7876,1.90995 -6.86123,5.81321 z"
       transform="scale(0.26458333)"
       inkscape:transform-center-x="-0.077128462"
       inkscape:transform-center-y="-0.267959" />
    <path
       sodipodi:type="star"
       style="fill:#c83737"
       id="path1038"
       inkscape:flatsided="false"
       sodipodi:sides="5"
       sodipodi:cx="133.4966"
       sodipodi:cy="45.934307"
       sodipodi:r1="16.740047"
       sodipodi:r2="8.3700237"
       sodipodi:arg1="1.0303768"
       sodipodi:arg2="1.6586954"
       inkscape:rounded="0"
       inkscape:randomized="0"
       d="m 142.10928,60.288779 -9.34745,-6.016762 -10.25568,4.289215 2.83376,-10.749239 -7.24847,-8.428289 11.09882,-0.626633 5.77588,-9.498184 4.02568,10.361958 10.81816,2.558089 -8.61081,7.030675 z"
       transform="scale(0.26458333)"
       inkscape:transform-center-x="-0.12015023"
       inkscape:transform-center-y="-0.30704222" />
    <path
       sodipodi:type="star"
       style="fill:#c83737"
       id="path1040"
       inkscape:flatsided="false"
       sodipodi:sides="5"
       sodipodi:cx="94.73951"
       sodipodi:cy="136.36748"
       sodipodi:r1="19.311968"
       sodipodi:r2="9.655983"
       sodipodi:arg1="0.7328151"
       sodipodi:arg2="1.3611336"
       inkscape:rounded="0"
       inkscape:randomized="0"
       d="m 109.09398,149.2865 -12.34477,-3.47449 -9.860648,8.19958 -0.510301,-12.81425 -10.845376,-6.84423 12.029389,-4.44514 3.157836,-12.42955 7.944873,10.067 12.797027,-0.83766 -7.11919,10.6669 z"
       transform="scale(0.26458333)"
       inkscape:transform-center-x="0.32862941"
       inkscape:transform-center-y="-0.16469633" />
    <path
       sodipodi:type="star"
       style="fill:#c83737"
       id="path1042"
       inkscape:flatsided="false"
       sodipodi:sides="5"
       sodipodi:cx="667.48291"
       sodipodi:cy="502.40652"
       sodipodi:r1="13.541981"
       sodipodi:r2="6.7709908"
       sodipodi:arg1="1.012197"
       sodipodi:arg2="1.6405155"
       inkscape:rounded="0"
       inkscape:randomized="0"
       d="m 674.66015,513.8901 -7.64893,-4.72903 -8.23195,3.62003 2.13393,-8.73591 -5.98667,-6.7104 8.96776,-0.67005 4.53199,-7.7673 3.40845,8.3218 8.7876,1.90995 -6.86123,5.8132 z"
       transform="scale(0.26458333)"
       inkscape:transform-center-x="-0.077128543"
       inkscape:transform-center-y="-0.26795914" />
    <path
       sodipodi:type="star"
       style="fill:#de8787"
       id="path1044"
       inkscape:flatsided="false"
       sodipodi:sides="5"
       sodipodi:cx="38.757072"
       sodipodi:cy="209.57529"
       sodipodi:r1="19.258545"
       sodipodi:r2="9.6292725"
       sodipodi:arg1="1.1071487"
       sodipodi:arg2="1.7354672"
       inkscape:rounded="0"
       inkscape:randomized="0"
       d="m 47.369756,226.80065 -10.191188,-7.72635 -12.142327,4.01507 4.19895,-12.07997 -7.570742,-10.30732 12.786281,0.26052 7.463351,-10.38534 3.703407,12.24099 12.183347,3.88882 -10.497451,7.30482 z"
       transform="scale(0.26458333)"
       inkscape:transform-center-x="-0.2581193"
       inkscape:transform-center-y="-0.2345083" />
    <path
       sodipodi:type="star"
       style="fill:#de8787"
       id="path1068"
       inkscape:flatsided="false"
       sodipodi:sides="5"
       sodipodi:cx="188.04358"
       sodipodi:cy="24.402601"
       sodipodi:r1="17.344574"
       sodipodi:r2="8.672287"
       sodipodi:arg1="0.42662749"
       sodipodi:arg2="1.054946"
       inkscape:rounded="0"
       inkscape:randomized="0"
       d="m 203.8335,31.579837 -11.5121,0.366558 -6.22442,9.691199 -3.90606,-10.835384 -11.14033,-2.925033 9.09803,-7.063193 -0.66068,-11.4989698 9.52894,6.4700908 10.73201,-4.181721 -3.20882,11.061929 z"
       transform="scale(0.26458333)"
       inkscape:transform-center-x="0.15915639"
       inkscape:transform-center-y="0.28408382" />
    <path
       sodipodi:type="star"
       style="fill:#de8787"
       id="path1070"
       inkscape:flatsided="false"
       sodipodi:sides="5"
       sodipodi:cx="635.90308"
       sodipodi:cy="531.11548"
       sodipodi:r1="13.541981"
       sodipodi:r2="6.7709908"
       sodipodi:arg1="1.012197"
       sodipodi:arg2="1.6405155"
       inkscape:rounded="0"
       inkscape:randomized="0"
       d="m 643.08031,542.59906 -7.64892,-4.72904 -8.23196,3.62004 2.13394,-8.73591 -5.98668,-6.71041 8.96777,-0.67005 4.53199,-7.76729 3.40845,8.32179 8.78759,1.90995 -6.86122,5.81321 z"
       transform="scale(0.26458333)"
       inkscape:transform-center-x="-0.077128649"
       inkscape:transform-center-y="-0.26795923" />
    <path
       sodipodi:type="star"
       style="fill:#ffd5d5"
       id="path1094"
       inkscape:flatsided="false"
       sodipodi:sides="5"
       sodipodi:cx="126.31935"
       sodipodi:cy="91.868622"
       sodipodi:r1="27.723089"
       sodipodi:r2="13.861545"
       sodipodi:arg1="0.37089129"
       sodipodi:arg2="0.99920982"
       inkscape:rounded="0"
       inkscape:randomized="0"
       d="m 152.1574,101.91675 -18.33941,1.61004 -9.07058,16.02032 -7.19843,-16.94429 -18.039192,-3.676082 13.890542,-12.082181 -2.07826,-18.292267 15.78325,9.477088 16.75477,-7.629158 -4.13596,17.939344 z"
       transform="scale(0.26458333)"
       inkscape:transform-center-x="0.12852369"
       inkscape:transform-center-y="0.57707653" />
    <path
       sodipodi:type="star"
       style="fill:#ffd5d5"
       id="path1120"
       inkscape:flatsided="false"
       sodipodi:sides="5"
       sodipodi:cx="589.96881"
       sodipodi:cy="546.9054"
       sodipodi:r1="14.354472"
       sodipodi:r2="7.1772356"
       sodipodi:arg1="0.92729522"
       sodipodi:arg2="1.5556137"
       inkscape:rounded="0"
       inkscape:randomized="0"
       d="m 598.58149,558.38897 -8.50371,-4.30717 -8.36903,4.56336 1.46856,-9.4185 -6.92618,-6.54927 9.41134,-1.51378 4.08841,-8.61103 4.34796,8.48293 9.45297,1.22736 -6.72416,6.75653 z"
       transform="scale(0.26458333)"
       inkscape:transform-center-x="0.017820046"
       inkscape:transform-center-y="-0.34568635" />
    <path
       sodipodi:type="star"
       style="fill:#ffd5d5"
       id="path1122"
       inkscape:flatsided="false"
       sodipodi:sides="5"
       sodipodi:cx="84.691383"
       sodipodi:cy="195.22081"
       sodipodi:r1="21.339457"
       sodipodi:r2="10.669728"
       sodipodi:arg1="0.83298127"
       sodipodi:arg2="1.4612998"
       inkscape:rounded="0"
       inkscape:randomized="0"
       d="m 99.045855,211.01073 -13.188507,-5.18409 -11.747294,7.92544 0.854889,-14.14499 -11.167653,-8.72325 13.716857,-3.55799 4.845306,-13.3167 7.622595,11.94603 14.162212,0.49307 -9.00583,10.94104 z"
       transform="scale(0.26458333)"
       inkscape:transform-center-x="0.19066063"
       inkscape:transform-center-y="-0.35459422" />
    <path
       sodipodi:type="star"
       style="fill:#ff2a2a"
       id="path1190"
       inkscape:flatsided="false"
       sodipodi:sides="5"
       sodipodi:cx="34.450733"
       sodipodi:cy="259.81595"
       sodipodi:r1="23.367388"
       sodipodi:r2="11.683693"
       sodipodi:arg1="0.82884906"
       sodipodi:arg2="1.4571676"
       inkscape:rounded="0"
       inkscape:randomized="0"
       d="m 50.240653,277.04132 -14.465172,-5.61702 -12.827692,8.73169 0.87212,-15.49295 -12.268305,-9.50162 15.00417,-3.95815 5.245463,-14.60402 8.400968,13.04668 15.510179,0.47584 -9.812087,12.02144 z"
       transform="scale(0.26458333)"
       inkscape:transform-center-x="0.21662493"
       inkscape:transform-center-y="-0.38055891" />
    <path
       sodipodi:type="star"
       style="fill:#ff2a2a"
       id="path1192"
       inkscape:flatsided="false"
       sodipodi:sides="5"
       sodipodi:cx="180.86633"
       sodipodi:cy="71.772362"
       sodipodi:r1="17.344574"
       sodipodi:r2="8.672287"
       sodipodi:arg1="0.42662749"
       sodipodi:arg2="1.054946"
       inkscape:rounded="0"
       inkscape:randomized="0"
       d="m 196.65625,78.949597 -11.5121,0.366558 -6.22442,9.6912 -3.90605,-10.835384 -11.14033,-2.925034 9.09802,-7.063193 -0.66068,-11.498969 9.52894,6.47009 10.73201,-4.181721 -3.20881,11.06193 z"
       transform="scale(0.26458333)"
       inkscape:transform-center-x="0.15915637"
       inkscape:transform-center-y="0.28408366" />
    <path
       sodipodi:type="star"
       style="fill:#ff2a2a"
       id="path1194"
       inkscape:flatsided="false"
       sodipodi:sides="5"
       sodipodi:cx="552.64716"
       sodipodi:cy="569.87256"
       sodipodi:r1="9.1913462"
       sodipodi:r2="4.5956731"
       sodipodi:arg1="0.89605538"
       sodipodi:arg2="1.5243739"
       inkscape:rounded="0"
       inkscape:randomized="0"
       d="m 558.38894,577.04979 -5.52852,-2.58651 -5.26491,3.08793 0.75151,-6.05721 -4.56374,-4.05301 5.99298,-1.15705 2.44436,-5.59283 2.95236,5.34212 6.07444,0.59645 -4.16833,4.45866 z"
       transform="scale(0.26458333)"
       inkscape:transform-center-x="0.034875354"
       inkscape:transform-center-y="-0.19880864" />
    <path
       sodipodi:type="star"
       style="fill:#ff2a2a"
       id="path1196"
       inkscape:flatsided="false"
       sodipodi:sides="5"
       sodipodi:cx="729.20715"
       sodipodi:cy="523.93823"
       sodipodi:r1="10.150144"
       sodipodi:r2="5.0750723"
       sodipodi:arg1="0.14189705"
       sodipodi:arg2="0.77021559"
       inkscape:rounded="0"
       inkscape:randomized="0"
       d="m 739.25528,525.37368 -6.40544,2.09827 -1.90284,6.4662 -3.97496,-5.44354 -6.73773,0.18846 3.94878,-5.46256 -2.26131,-6.34972 6.41545,2.06748 5.34016,-4.1128 0.0162,6.74034 z"
       transform="scale(0.26458333)"
       inkscape:transform-center-x="-0.14224913"
       inkscape:transform-center-y="0.11736148" />
    <path
       sodipodi:type="star"
       style="fill:#c83737"
       id="path1220"
       inkscape:flatsided="false"
       sodipodi:sides="5"
       sodipodi:cx="139.23837"
       sodipodi:cy="146.4156"
       sodipodi:r1="33.510853"
       sodipodi:r2="16.755426"
       sodipodi:arg1="0.7551044"
       sodipodi:arg2="1.3834229"
       inkscape:rounded="0"
       inkscape:randomized="0"
       d="m 163.64098,169.38276 -21.28142,-6.505 -17.42343,13.84334 -0.3897,-22.24999 -18.54993,-12.29284 21.04057,-7.24624 5.95894,-21.44074 13.39348,17.77157 22.23276,-0.95827 -12.76294,18.22968 z"
       transform="scale(0.26458333)"
       inkscape:transform-center-x="0.51038086"
       inkscape:transform-center-y="-0.34644766" />
    <path
       sodipodi:type="star"
       style="fill:#c83737"
       id="path1222"
       inkscape:flatsided="false"
       sodipodi:sides="5"
       sodipodi:cx="696.19189"
       sodipodi:cy="562.69531"
       sodipodi:r1="21.86408"
       sodipodi:r2="10.93204"
       sodipodi:arg1="0.40489179"
       sodipodi:arg2="1.0332103"
       inkscape:rounded="0"
       inkscape:randomized="0"
       d="m 716.28816,571.308 -14.49836,0.77736 -7.57897,12.3841 -5.21955,-13.54854 -14.12001,-3.38113 11.27249,-9.15082 -1.14767,-14.47375 12.18634,7.89302 13.4107,-5.56414 -3.74092,14.02897 z"
       transform="scale(0.26458333)"
       inkscape:transform-center-x="0.16197545"
       inkscape:transform-center-y="0.3960863" />
    <path
       sodipodi:type="star"
       style="fill:#c83737"
       id="path1224"
       inkscape:flatsided="false"
       sodipodi:sides="5"
       sodipodi:cx="762.22247"
       sodipodi:cy="466.52032"
       sodipodi:r1="22.696413"
       sodipodi:r2="11.348206"
       sodipodi:arg1="0.32175055"
       sodipodi:arg2="0.95006909"
       inkscape:rounded="0"
       inkscape:randomized="0"
       d="m 783.75418,473.69756 -14.93129,2.05403 -6.77271,13.46449 -6.56752,-13.56576 -14.89838,-2.28048 10.87234,-10.43813 -2.43499,-14.87391 13.28699,7.11465 13.39347,-6.91211 -2.66052,14.83523 z"
       transform="scale(0.26458333)"
       inkscape:transform-center-x="0.014089375"
       inkscape:transform-center-y="0.56001985" />
    <path
       sodipodi:type="star"
       style="fill:#ffaaaa"
       id="path1248"
       inkscape:flatsided="false"
       sodipodi:sides="5"
       sodipodi:cx="132.06114"
       sodipodi:cy="251.20325"
       sodipodi:r1="35.655769"
       sodipodi:r2="17.827885"
       sodipodi:arg1="0.69989287"
       sodipodi:arg2="1.3282114"
       inkscape:rounded="0"
       inkscape:randomized="0"
       d="m 159.33464,274.1704 -22.99101,-5.66126 -17.69758,15.72999 -1.72043,-23.61518 -20.428956,-11.97056 21.927726,-8.93372 5.07178,-23.1282 15.27252,18.09384 23.56349,-2.32346 -12.4888,20.11633 z"
       transform="scale(0.26458333)"
       inkscape:transform-center-x="0.70027853"
       inkscape:transform-center-y="-0.20847926" />
    <path
       sodipodi:type="star"
       style="fill:#ffaaaa"
       id="path1250"
       inkscape:flatsided="false"
       sodipodi:sides="5"
       sodipodi:cx="235.41335"
       sodipodi:cy="38.757072"
       sodipodi:r1="37.266376"
       sodipodi:r2="18.633188"
       sodipodi:arg1="0.2730087"
       sodipodi:arg2="0.90132723"
       inkscape:rounded="0"
       inkscape:randomized="0"
       d="M 271.29953,48.805203 246.97654,53.36831 236.94645,75.991901 225.09046,54.269444 200.47467,51.721332 217.47026,33.733007 212.28696,9.5345971 234.6468,20.139658 256.05912,7.7323304 252.88268,32.274943 Z"
       transform="scale(0.26458333)"
       inkscape:transform-center-x="-0.12534658"
       inkscape:transform-center-y="0.82154248" />
    <path
       sodipodi:type="star"
       style="fill:#ffaaaa"
       id="path1348"
       inkscape:flatsided="false"
       sodipodi:sides="5"
       sodipodi:cx="716.10248"
       sodipodi:cy="421.00406"
       sodipodi:r1="23.328402"
       sodipodi:r2="11.6642"
       sodipodi:arg1="0.89786643"
       sodipodi:arg2="1.526185"
       inkscape:rounded="0"
       inkscape:randomized="0"
       d="m 730.6426,439.24684 -14.01994,-6.59019 -13.37696,7.81322 1.93525,-15.37024 -11.56452,-10.30782 15.21599,-2.90914 6.22969,-14.1838 7.46875,13.57229 15.41468,1.54175 -10.60004,11.29728 z"
       transform="scale(0.26458333)"
       inkscape:transform-center-x="0.085063532"
       inkscape:transform-center-y="-0.50791981" />
    <path
       sodipodi:type="star"
       style="fill:#ff2a2a"
       id="path1374"
       inkscape:flatsided="false"
       sodipodi:sides="5"
       sodipodi:cx="543.78326"
       sodipodi:cy="567.44098"
       sodipodi:r1="17.482979"
       sodipodi:r2="8.7414894"
       sodipodi:arg1="0.58189611"
       sodipodi:arg2="1.2102146"
       inkscape:rounded="0"
       inkscape:randomized="0"
       d="m 558.38893,577.04978 -11.52151,-1.42946 -7.70927,8.68076 -2.20084,-11.39934 -10.63819,-4.64945 10.16131,-5.61571 1.13451,-11.55428 8.48088,7.92863 11.33936,-2.49148 -4.91984,10.51587 z"
       transform="scale(0.26458333)"
       inkscape:transform-center-x="0.37815467"
       inkscape:transform-center-y="0.066331473" />
    <path
       sodipodi:type="star"
       style="fill:#ff2a2a"
       id="path1376"
       inkscape:flatsided="false"
       sodipodi:sides="5"
       sodipodi:cx="752.17432"
       sodipodi:cy="358.86179"
       sodipodi:r1="27.083963"
       sodipodi:r2="13.541981"
       sodipodi:arg1="0.55859932"
       sodipodi:arg2="1.1869178"
       inkscape:rounded="0"
       inkscape:randomized="0"
       d="m 775.14147,373.21626 -17.89542,-1.79809 -11.62641,13.72245 -3.8199,-17.57519 -16.64359,-6.8169 15.53459,-9.06398 1.3401,-17.93553 13.42081,11.97335 17.47182,-4.26787 -7.24007,16.46391 z"
       transform="scale(0.26458333)"
       inkscape:transform-center-x="0.53591743"
       inkscape:transform-center-y="0.15426034" />
    <path
       sodipodi:type="star"
       style="fill:#ff8080"
       id="path1422"
       inkscape:flatsided="false"
       sodipodi:sides="5"
       sodipodi:cx="206.70439"
       sodipodi:cy="127.7548"
       sodipodi:r1="36.54052"
       sodipodi:r2="18.27026"
       sodipodi:arg1="0.78539816"
       sodipodi:arg2="1.4137167"
       inkscape:rounded="0"
       inkscape:randomized="0"
       d="m 232.54244,153.59285 -22.97995,-7.79273 -19.44715,14.51252 0.31013,-24.26332 -19.81172,-14.01072 23.17162,-7.20283 7.20282,-23.171616 14.01073,19.811726 24.26331,-0.31013 -14.51252,19.44715 z"
       transform="scale(0.26458333)"
       inkscape:transform-center-x="0.46736118"
       inkscape:transform-center-y="-0.46736092" />
    <path
       sodipodi:type="star"
       style="fill:#ff8080"
       id="path1424"
       inkscape:flatsided="false"
       sodipodi:sides="5"
       sodipodi:cx="41.627968"
       sodipodi:cy="308.62115"
       sodipodi:r1="30.920479"
       sodipodi:r2="15.460239"
       sodipodi:arg1="0.38050638"
       sodipodi:arg2="1.0088249"
       inkscape:rounded="0"
       inkscape:randomized="0"
       d="m 70.336912,320.10473 -20.470871,1.59898 -10.288053,17.76989 -7.846561,-18.97484 -20.07936,-4.29332 15.621429,-13.32607 -2.121674,-20.42332 17.501136,10.73888 18.768093,-8.32898 -4.805133,19.96306 z"
       transform="scale(0.26458333)"
       inkscape:transform-center-x="0.167608"
       inkscape:transform-center-y="0.62009571" />
    <path
       sodipodi:type="star"
       style="fill:#ff8080"
       id="path1426"
       inkscape:flatsided="false"
       sodipodi:sides="5"
       sodipodi:cx="757.91608"
       sodipodi:cy="554.08258"
       sodipodi:r1="25.110069"
       sodipodi:r2="12.555035"
       sodipodi:arg1="0.5404195"
       sodipodi:arg2="1.168738"
       inkscape:rounded="0"
       inkscape:randomized="0"
       d="m 779.44778,567.0016 -16.61875,-1.36515 -10.54601,12.9162 -3.83714,-16.22723 -15.54293,-6.03853 14.24727,-8.66382 0.93995,-16.64822 12.64244,10.8727 16.12385,-4.25064 -6.43382,15.38352 z"
       transform="scale(0.26458333)"
       inkscape:transform-center-x="0.46056562"
       inkscape:transform-center-y="0.18022416" />
    <path
       sodipodi:type="star"
       style="fill:#ff8080"
       id="path1428"
       inkscape:flatsided="false"
       sodipodi:sides="5"
       sodipodi:cx="627.29041"
       sodipodi:cy="574.17889"
       sodipodi:r1="17.344574"
       sodipodi:r2="8.672287"
       sodipodi:arg1="0.42662749"
       sodipodi:arg2="1.054946"
       inkscape:rounded="0"
       inkscape:randomized="0"
       d="m 643.08032,581.35613 -11.51209,0.36656 -6.22443,9.6912 -3.90605,-10.83539 -11.14033,-2.92503 9.09803,-7.06319 -0.66068,-11.49897 9.52894,6.47009 10.73201,-4.18172 -3.20882,11.06193 z"
       transform="scale(0.26458333)"
       inkscape:transform-center-x="0.15915786"
       inkscape:transform-center-y="0.28408198" />
    <path
       sodipodi:type="star"
       style="fill:#ff8080"
       id="path1430"
       inkscape:flatsided="false"
       sodipodi:sides="5"
       sodipodi:cx="767.96423"
       sodipodi:cy="301.44391"
       sodipodi:r1="17.462969"
       sodipodi:r2="8.7314844"
       sodipodi:arg1="0.16514868"
       sodipodi:arg2="0.79346721"
       inkscape:rounded="0"
       inkscape:randomized="0"
       d="m 785.1896,304.3148 -11.10129,3.35282 -3.53153,11.04574 -6.6192,-9.52188 -11.59643,0.0546 7.0104,-9.23766 -3.63546,-11.01197 10.95187,3.81269 9.34959,-6.86041 -0.24177,11.59403 z"
       transform="scale(0.26458333)"
       inkscape:transform-center-x="-0.2119661"
       inkscape:transform-center-y="0.23472546" />
    <path
       sodipodi:type="star"
       style="fill:#ff8080"
       id="path1432"
       inkscape:flatsided="false"
       sodipodi:sides="5"
       sodipodi:cx="473.69757"
       sodipodi:cy="572.74341"
       sodipodi:r1="15.259013"
       sodipodi:r2="7.6295061"
       sodipodi:arg1="0.85196633"
       sodipodi:arg2="1.4802849"
       inkscape:rounded="0"
       inkscape:randomized="0"
       d="m 483.7457,584.22699 -9.35851,-3.88531 -8.50611,5.50669 0.8032,-10.1011 -7.8657,-6.38813 9.85493,-2.35752 3.64483,-9.45476 5.28747,8.64407 10.11834,0.54476 -6.58709,7.69985 z"
       transform="scale(0.26458333)"
       inkscape:transform-center-x="0.11276851"
       inkscape:transform-center-y="-0.27670206" />
    <path
       sodipodi:type="star"
       style="fill:#ffd5d5"
       id="path1456"
       inkscape:flatsided="false"
       sodipodi:sides="5"
       sodipodi:cx="199.52716"
       sodipodi:cy="203.8335"
       sodipodi:r1="34.689148"
       sodipodi:r2="17.344574"
       sodipodi:arg1="0.42662749"
       sodipodi:arg2="1.054946"
       inkscape:rounded="0"
       inkscape:randomized="0"
       d="m 231.107,218.18797 -23.0242,0.73311 -12.44885,19.3824 -7.8121,-21.67077 -22.28066,-5.85006 18.19605,-14.12639 -1.32136,-22.99794 19.05788,12.94018 21.46402,-8.36344 -6.41763,22.12386 z"
       transform="scale(0.26458333)"
       inkscape:transform-center-x="0.3183122"
       inkscape:transform-center-y="0.56816711" />
    <path
       sodipodi:type="star"
       style="fill:#c83737"
       id="path1480"
       inkscape:flatsided="false"
       sodipodi:sides="5"
       sodipodi:cx="274.17041"
       sodipodi:cy="87.562279"
       sodipodi:r1="32.480461"
       sodipodi:r2="16.240231"
       sodipodi:arg1="0.78539816"
       sodipodi:arg2="1.4137167"
       inkscape:rounded="0"
       inkscape:randomized="0"
       d="m 297.13756,110.52943 -20.42662,-6.92686 -17.28635,12.90001 0.27567,-21.567391 -17.61042,-12.453974 20.59699,-6.402513 6.40252,-20.596996 12.45397,17.610421 21.56739,-0.275669 -12.90001,17.286353 z"
       transform="scale(0.26458333)"
       inkscape:transform-center-x="0.41543246"
       inkscape:transform-center-y="-0.41543184" />
    <path
       sodipodi:type="star"
       style="fill:#ff5555"
       id="path1504"
       inkscape:flatsided="false"
       sodipodi:sides="5"
       sodipodi:cx="314.36292"
       sodipodi:cy="21.531708"
       sodipodi:r1="30.719912"
       sodipodi:r2="15.359955"
       sodipodi:arg1="0.65284663"
       sodipodi:arg2="1.2811652"
       inkscape:rounded="0"
       inkscape:randomized="0"
       d="m 338.76552,40.192521 -20.01582,-3.940611 -14.59345,14.25456 -2.43749,-20.253891 -18.06652,-9.474297 18.50937,-8.576981 3.42774,-20.1099984 13.8769,14.953025 20.18497,-2.9543654 -9.93297,17.8184588 z"
       transform="scale(0.26458333)"
       inkscape:transform-center-x="0.71733457"
       inkscape:transform-center-y="-0.061600703" />
    <path
       sodipodi:type="star"
       style="fill:#ffd5d5"
       id="path1528"
       inkscape:flatsided="false"
       sodipodi:sides="5"
       sodipodi:cx="33.015285"
       sodipodi:cy="376.08716"
       sodipodi:r1="34.689148"
       sodipodi:r2="17.344574"
       sodipodi:arg1="0.42662749"
       sodipodi:arg2="1.054946"
       inkscape:rounded="0"
       inkscape:randomized="0"
       d="m 64.595123,390.44163 -23.024198,0.73312 -12.448847,19.38239 -7.812102,-21.67076 -22.28066233,-5.85007 18.19605333,-14.12639 -1.32136,-22.99794 19.057882,12.94019 21.464017,-8.36345 -6.417635,22.12386 z"
       transform="scale(0.26458333)"
       inkscape:transform-center-x="0.31831164"
       inkscape:transform-center-y="0.56816654" />
    <path
       sodipodi:type="star"
       style="fill:#ffd5d5"
       id="path1530"
       inkscape:flatsided="false"
       sodipodi:sides="5"
       sodipodi:cx="100.4813"
       sodipodi:cy="312.92749"
       sodipodi:r1="30.518024"
       sodipodi:r2="15.259013"
       sodipodi:arg1="0.71883"
       sodipodi:arg2="1.3471485"
       inkscape:rounded="0"
       inkscape:randomized="0"
       d="m 123.44845,333.02375 -19.58288,-5.21727 -15.399708,13.17416 -1.089522,-20.23666 -17.288143,-10.57495 18.909525,-7.28967 4.715046,-19.70984 12.776252,15.7314 20.2022,-1.60641 -11.01337,17.01221 z"
       transform="scale(0.26458333)"
       inkscape:transform-center-x="0.55340064"
       inkscape:transform-center-y="-0.2255349" />
    <path
       sodipodi:type="star"
       style="fill:#ff2a2a"
       id="path1576"
       inkscape:flatsided="false"
       sodipodi:sides="5"
       sodipodi:cx="93.30407"
       sodipodi:cy="377.52261"
       sodipodi:r1="10.351157"
       sodipodi:r2="5.1755786"
       sodipodi:arg1="0.5880026"
       sodipodi:arg2="1.2163211"
       inkscape:rounded="0"
       inkscape:randomized="0"
       d="m 101.91675,383.2644 -6.816246,-0.88798 -4.595735,5.11165 -1.261815,-6.75704 -6.281631,-2.79121 6.036405,-3.2881 0.713473,-6.83672 4.992518,4.72488 6.722581,-1.4341 -2.950857,6.20823 z"
       transform="scale(0.26458333)"
       inkscape:transform-center-x="0.22887317"
       inkscape:transform-center-y="0.034109606" />
    <text
       xml:space="preserve"
       transform="scale(0.26458333)"
       id="text3712"
       style="font-style:normal;font-weight:normal;font-size:40px;line-height:1.25;font-family:sans-serif;white-space:pre;shape-inside:url(#rect3714);fill:#000000;fill-opacity:1;stroke:none"><tspan
         x="378.95898"
         y="85.2979"
         id="tspan45620"><tspan
           style="fill:#c83737"
           id="tspan45618">Destinataire</tspan></tspan></text>
    <text
       xml:space="preserve"
       transform="scale(0.26458333)"
       id="text6468"
       style="font-style:normal;font-weight:normal;font-size:40px;line-height:1.25;font-family:sans-serif;white-space:pre;shape-inside:url(#rect6470);fill:#000000;fill-opacity:1;stroke:none"><tspan
         x="305.75"
         y="194.39165"
         id="tspan45624"><tspan
           style="fill:#d35f5f"
           id="tspan45622">Bonne année 2022</tspan></tspan></text>
    <text
       xml:space="preserve"
       transform="scale(0.26458333)"
       id="text9840"
       style="font-style:normal;font-weight:normal;font-size:40px;line-height:1.25;font-family:sans-serif;white-space:pre;shape-inside:url(#rect9842);fill:#000000;fill-opacity:1;stroke:none"><tspan
         x="238.28516"
         y="299.18071"
         id="tspan45628"><tspan
           style="fill:#d35f5f"
           id="tspan45626">   Je vous souhaite</tspan></tspan></text>
    <text
       xml:space="preserve"
       transform="scale(0.26458333)"
       id="text13278"
       style="font-style:normal;font-weight:normal;font-size:40px;line-height:1.25;font-family:sans-serif;white-space:pre;shape-inside:url(#rect13280);fill:#000000;fill-opacity:1;stroke:none" />
    <text
       xml:space="preserve"
       transform="scale(0.26458333)"
       id="text25993"
       style="font-style:normal;font-weight:normal;font-size:40px;line-height:1.25;font-family:sans-serif;white-space:pre;shape-inside:url(#rect25995);fill:#000000;fill-opacity:1;stroke:none" />
    <text
       xml:space="preserve"
       transform="scale(0.26458333)"
       id="text30977"
       style="font-style:normal;font-weight:normal;font-size:40px;line-height:1.25;font-family:sans-serif;white-space:pre;shape-inside:url(#rect30979);fill:#000000;fill-opacity:1;stroke:none" />
    <text
       xml:space="preserve"
       transform="scale(0.26458333)"
       id="text36853"
       style="font-style:normal;font-weight:normal;font-size:40px;line-height:1.25;font-family:sans-serif;white-space:pre;shape-inside:url(#rect36855);fill:#000000;fill-opacity:1;stroke:none"><tspan
         x="159.33398"
         y="401.09673"
         id="tspan45632"><tspan
           style="fill:#d35f5f"
           id="tspan45630">beaucoup de bonheur</tspan></tspan></text>
    <text
       xml:space="preserve"
       transform="scale(0.26458333)"
       id="text42589"
       style="font-style:normal;font-weight:normal;font-size:40px;line-height:1.25;font-family:sans-serif;white-space:pre;shape-inside:url(#rect42591);fill:#000000;fill-opacity:1;stroke:none"><tspan
         x="327.28125"
         y="508.75493"
         id="tspan45636"><tspan
           style="fill:#d35f5f"
           id="tspan45634">  Signature</tspan></tspan></text>
  </g>
</svg>
